<svg xmlns="http://www.w3.org/2000/svg" width="741.6" height="402.64" viewBox="0 0 741.6 402.64" font-family="ui-monospace, SFMono-Regular, 'JetBrains Mono', Menlo, Consolas, 'Cascadia Mono', monospace" font-size="14px"><style>:root{--bg:#1a1b26;--fg:#c0caf5;--c0:#15161e;--c1:#f7768e;--c2:#9ece6a;--c3:#e0af68;--c4:#7aa2f7;--c5:#bb9af7;--c6:#7dcfff;--c7:#a9b1d6;--c8:#414868;--c9:#f7768e;--c10:#9ece6a;--c11:#e0af68;--c12:#7aa2f7;--c13:#bb9af7;--c14:#7dcfff;--c15:#c0caf5;}@media(prefers-color-scheme:light){:root{--bg:#e1e2e7;--fg:#3760bf;--c0:#b4b5b9;--c1:#f52a65;--c2:#587539;--c3:#8c6c3e;--c4:#2e7de9;--c5:#9854f1;--c6:#007197;--c7:#6172b0;--c8:#a1a6c5;--c9:#f52a65;--c10:#587539;--c11:#8c6c3e;--c12:#2e7de9;--c13:#9854f1;--c14:#007197;--c15:#3760bf;}}:root[data-theme="light"]{--bg:#e1e2e7;--fg:#3760bf;--c0:#b4b5b9;--c1:#f52a65;--c2:#587539;--c3:#8c6c3e;--c4:#2e7de9;--c5:#9854f1;--c6:#007197;--c7:#6172b0;--c8:#a1a6c5;--c9:#f52a65;--c10:#587539;--c11:#8c6c3e;--c12:#2e7de9;--c13:#9854f1;--c14:#007197;--c15:#3760bf;}:root[data-theme="dark"]{--bg:#1a1b26;--fg:#c0caf5;--c0:#15161e;--c1:#f7768e;--c2:#9ece6a;--c3:#e0af68;--c4:#7aa2f7;--c5:#bb9af7;--c6:#7dcfff;--c7:#a9b1d6;--c8:#414868;--c9:#f7768e;--c10:#9ece6a;--c11:#e0af68;--c12:#7aa2f7;--c13:#bb9af7;--c14:#7dcfff;--c15:#c0caf5;}text{white-space:pre;font-variant-ligatures:none}.b{font-weight:700}.i{font-style:italic}.u{text-decoration:underline}.cur{fill:var(--fg);opacity:.7}@keyframes tsroll{0%{transform:translateY(0px)}0.939%{transform:translateY(-332.64px)}1.253%{transform:translateY(-665.28px)}1.566%{transform:translateY(-997.92px)}2.192%{transform:translateY(-1330.56px)}2.818%{transform:translateY(-1663.2px)}3.445%{transform:translateY(-1995.84px)}4.071%{transform:translateY(-2328.48px)}4.697%{transform:translateY(-2661.12px)}5.324%{transform:translateY(-2993.76px)}5.95%{transform:translateY(-3326.4px)}6.263%{transform:translateY(-3659.04px)}6.889%{transform:translateY(-3991.68px)}7.516%{transform:translateY(-4324.32px)}8.142%{transform:translateY(-4656.96px)}8.768%{transform:translateY(-4989.6px)}9.081%{transform:translateY(-5322.24px)}10.021%{transform:translateY(-5654.88px)}10.334%{transform:translateY(-5987.52px)}10.96%{transform:translateY(-6320.16px)}11.587%{transform:translateY(-6652.8px)}12.213%{transform:translateY(-6985.44px)}12.839%{transform:translateY(-7318.08px)}13.152%{transform:translateY(-7650.72px)}13.779%{transform:translateY(-7983.36px)}14.405%{transform:translateY(-8316px)}15.031%{transform:translateY(-8648.64px)}15.658%{transform:translateY(-8981.28px)}16.284%{transform:translateY(-9313.92px)}16.91%{transform:translateY(-9646.56px)}17.223%{transform:translateY(-9979.2px)}17.85%{transform:translateY(-10311.84px)}18.476%{transform:translateY(-10644.48px)}19.102%{transform:translateY(-10977.12px)}19.729%{transform:translateY(-11309.76px)}20.355%{transform:translateY(-11642.4px)}20.981%{transform:translateY(-11975.04px)}21.294%{transform:translateY(-12307.68px)}21.921%{transform:translateY(-12640.32px)}22.547%{transform:translateY(-12972.96px)}23.173%{transform:translateY(-13305.6px)}23.8%{transform:translateY(-13638.24px)}24.113%{transform:translateY(-13970.88px)}25.052%{transform:translateY(-14303.52px)}25.365%{transform:translateY(-14636.16px)}25.992%{transform:translateY(-14968.8px)}26.618%{transform:translateY(-15301.44px)}27.244%{transform:translateY(-15634.08px)}27.871%{transform:translateY(-15966.72px)}28.184%{transform:translateY(-16299.36px)}28.81%{transform:translateY(-16632px)}29.436%{transform:translateY(-16964.64px)}30.063%{transform:translateY(-17297.28px)}30.689%{transform:translateY(-17629.92px)}31.315%{transform:translateY(-17962.56px)}31.942%{transform:translateY(-18295.2px)}32.568%{transform:translateY(-18627.84px)}32.881%{transform:translateY(-18960.48px)}33.507%{transform:translateY(-19293.12px)}34.134%{transform:translateY(-19625.76px)}34.76%{transform:translateY(-19958.4px)}35.386%{transform:translateY(-20291.04px)}35.699%{transform:translateY(-20623.68px)}36.326%{transform:translateY(-20956.32px)}36.952%{transform:translateY(-21288.96px)}37.578%{transform:translateY(-21621.6px)}38.205%{transform:translateY(-21954.24px)}38.831%{transform:translateY(-22286.88px)}39.457%{transform:translateY(-22619.52px)}39.77%{transform:translateY(-22952.16px)}40.397%{transform:translateY(-23284.8px)}41.023%{transform:translateY(-23617.44px)}41.649%{transform:translateY(-23950.08px)}42.276%{transform:translateY(-24282.72px)}42.589%{transform:translateY(-24615.36px)}43.528%{transform:translateY(-24948px)}44.154%{transform:translateY(-25280.64px)}44.468%{transform:translateY(-25613.28px)}45.094%{transform:translateY(-25945.92px)}45.72%{transform:translateY(-26278.56px)}46.347%{transform:translateY(-26611.2px)}46.66%{transform:translateY(-26943.84px)}47.286%{transform:translateY(-27276.48px)}48.225%{transform:translateY(-27609.12px)}48.539%{transform:translateY(-27941.76px)}49.165%{transform:translateY(-28274.4px)}49.791%{transform:translateY(-28607.04px)}50.104%{transform:translateY(-28939.68px)}50.418%{transform:translateY(-29272.32px)}57.62%{transform:translateY(-29604.96px)}58.246%{transform:translateY(-29937.6px)}58.873%{transform:translateY(-30270.24px)}59.499%{transform:translateY(-30602.88px)}60.125%{transform:translateY(-30935.52px)}60.438%{transform:translateY(-31268.16px)}61.065%{transform:translateY(-31600.8px)}61.691%{transform:translateY(-31933.44px)}62.317%{transform:translateY(-32266.08px)}62.944%{transform:translateY(-32598.72px)}63.57%{transform:translateY(-32931.36px)}64.196%{transform:translateY(-33264px)}64.509%{transform:translateY(-33596.64px)}65.136%{transform:translateY(-33929.28px)}65.762%{transform:translateY(-34261.92px)}66.388%{transform:translateY(-34594.56px)}67.015%{transform:translateY(-34927.2px)}67.328%{transform:translateY(-35259.84px)}67.954%{transform:translateY(-35592.48px)}68.58%{transform:translateY(-35925.12px)}69.207%{transform:translateY(-36257.76px)}69.833%{transform:translateY(-36590.4px)}70.459%{transform:translateY(-36923.04px)}71.086%{transform:translateY(-37255.68px)}71.399%{transform:translateY(-37588.32px)}72.025%{transform:translateY(-37920.96px)}72.651%{transform:translateY(-38253.6px)}73.278%{transform:translateY(-38586.24px)}73.591%{transform:translateY(-38918.88px)}73.904%{transform:translateY(-39251.52px)}100%{transform:translateY(-39251.52px)}}.s{animation:tsroll 9.58s step-end infinite}</style><rect width="741.6" height="402.64" rx="10" fill="var(--bg)"/><circle cx="20" cy="17" r="5.5" fill="#ff5f57"/><circle cx="38" cy="17" r="5.5" fill="#febc2e"/><circle cx="56" cy="17" r="5.5" fill="#28c840"/><text x="370.8" y="21" text-anchor="middle" fill="var(--fg)" opacity=".55" font-size="11.9px">bash</text><defs><clipPath id="tsclip"><rect x="18" y="52" width="705.6" height="332.64"/></clipPath></defs><g clip-path="url(#tsclip)"><g transform="translate(18,52)"><g class="s"><g transform="translate(0,0)"></g><g transform="translate(0,332.64)"><rect class="cur" x="84" y="0" width="8.4" height="18.48"/><text y="13.16" xml:space="preserve"><tspan x="0" fill="var(--fg)">bash-5.3$</tspan></text></g><g transform="translate(0,665.28)"><rect class="cur" x="92.4" y="0" width="8.4" height="18.48"/><text y="13.16" xml:space="preserve"><tspan x="0" fill="var(--fg)">bash-5.3$ e</tspan></text></g><g transform="translate(0,997.92)"><rect class="cur" x="100.8" y="0" width="8.4" height="18.48"/><text y="13.16" xml:space="preserve"><tspan x="0" fill="var(--fg)">bash-5.3$ ex</tspan></text></g><g transform="translate(0,1330.56)"><rect class="cur" x="109.2" y="0" width="8.4" height="18.48"/><text y="13.16" xml:space="preserve"><tspan x="0" fill="var(--fg)">bash-5.3$ exp</tspan></text></g><g transform="translate(0,1663.2)"><rect class="cur" x="117.6" y="0" width="8.4" height="18.48"/><text y="13.16" xml:space="preserve"><tspan x="0" fill="var(--fg)">bash-5.3$ expo</tspan></text></g><g transform="translate(0,1995.84)"><rect class="cur" x="126" y="0" width="8.4" height="18.48"/><text y="13.16" xml:space="preserve"><tspan x="0" fill="var(--fg)">bash-5.3$ expor</tspan></text></g><g transform="translate(0,2328.48)"><rect class="cur" x="134.4" y="0" width="8.4" height="18.48"/><text y="13.16" xml:space="preserve"><tspan x="0" fill="var(--fg)">bash-5.3$ export</tspan></text></g><g transform="translate(0,2661.12)"><rect class="cur" x="142.8" y="0" width="8.4" height="18.48"/><text y="13.16" xml:space="preserve"><tspan x="0" fill="var(--fg)">bash-5.3$ export</tspan></text></g><g transform="translate(0,2993.76)"><rect class="cur" x="151.2" y="0" width="8.4" height="18.48"/><text y="13.16" xml:space="preserve"><tspan x="0" fill="var(--fg)">bash-5.3$ export P</tspan></text></g><g transform="translate(0,3326.4)"><rect class="cur" x="159.6" y="0" width="8.4" height="18.48"/><text y="13.16" xml:space="preserve"><tspan x="0" fill="var(--fg)">bash-5.3$ export PA</tspan></text></g><g transform="translate(0,3659.04)"><rect class="cur" x="168" y="0" width="8.4" height="18.48"/><text y="13.16" xml:space="preserve"><tspan x="0" fill="var(--fg)">bash-5.3$ export PAT</tspan></text></g><g transform="translate(0,3991.68)"><rect class="cur" x="176.4" y="0" width="8.4" height="18.48"/><text y="13.16" xml:space="preserve"><tspan x="0" fill="var(--fg)">bash-5.3$ export PATH</tspan></text></g><g transform="translate(0,4324.32)"><rect class="cur" x="184.8" y="0" width="8.4" height="18.48"/><text y="13.16" xml:space="preserve"><tspan x="0" fill="var(--fg)">bash-5.3$ export PATH=</tspan></text></g><g transform="translate(0,4656.96)"><rect class="cur" x="193.2" y="0" width="8.4" height="18.48"/><text y="13.16" xml:space="preserve"><tspan x="0" fill="var(--fg)">bash-5.3$ export PATH=/</tspan></text></g><g transform="translate(0,4989.6)"><rect class="cur" x="201.6" y="0" width="8.4" height="18.48"/><text y="13.16" xml:space="preserve"><tspan x="0" fill="var(--fg)">bash-5.3$ export PATH=/c</tspan></text></g><g transform="translate(0,5322.24)"><rect class="cur" x="210" y="0" width="8.4" height="18.48"/><text y="13.16" xml:space="preserve"><tspan x="0" fill="var(--fg)">bash-5.3$ export PATH=/c/</tspan></text></g><g transform="translate(0,5654.88)"><rect class="cur" x="218.4" y="0" width="8.4" height="18.48"/><text y="13.16" xml:space="preserve"><tspan x="0" fill="var(--fg)">bash-5.3$ export PATH=/c/p</tspan></text></g><g transform="translate(0,5987.52)"><rect class="cur" x="226.8" y="0" width="8.4" height="18.48"/><text y="13.16" xml:space="preserve"><tspan x="0" fill="var(--fg)">bash-5.3$ export PATH=/c/pr</tspan></text></g><g transform="translate(0,6320.16)"><rect class="cur" x="235.2" y="0" width="8.4" height="18.48"/><text y="13.16" xml:space="preserve"><tspan x="0" fill="var(--fg)">bash-5.3$ export PATH=/c/pro</tspan></text></g><g transform="translate(0,6652.8)"><rect class="cur" x="243.6" y="0" width="8.4" height="18.48"/><text y="13.16" xml:space="preserve"><tspan x="0" fill="var(--fg)">bash-5.3$ export PATH=/c/proj</tspan></text></g><g transform="translate(0,6985.44)"><rect class="cur" x="252" y="0" width="8.4" height="18.48"/><text y="13.16" xml:space="preserve"><tspan x="0" fill="var(--fg)">bash-5.3$ export PATH=/c/proje</tspan></text></g><g transform="translate(0,7318.08)"><rect class="cur" x="260.4" y="0" width="8.4" height="18.48"/><text y="13.16" xml:space="preserve"><tspan x="0" fill="var(--fg)">bash-5.3$ export PATH=/c/projec</tspan></text></g><g transform="translate(0,7650.72)"><rect class="cur" x="268.8" y="0" width="8.4" height="18.48"/><text y="13.16" xml:space="preserve"><tspan x="0" fill="var(--fg)">bash-5.3$ export PATH=/c/project</tspan></text></g><g transform="translate(0,7983.36)"><rect class="cur" x="277.2" y="0" width="8.4" height="18.48"/><text y="13.16" xml:space="preserve"><tspan x="0" fill="var(--fg)">bash-5.3$ export PATH=/c/projects</tspan></text></g><g transform="translate(0,8316)"><rect class="cur" x="285.6" y="0" width="8.4" height="18.48"/><text y="13.16" xml:space="preserve"><tspan x="0" fill="var(--fg)">bash-5.3$ export PATH=/c/projects/</tspan></text></g><g transform="translate(0,8648.64)"><rect class="cur" x="294" y="0" width="8.4" height="18.48"/><text y="13.16" xml:space="preserve"><tspan x="0" fill="var(--fg)">bash-5.3$ export PATH=/c/projects/t</tspan></text></g><g transform="translate(0,8981.28)"><rect class="cur" x="302.4" y="0" width="8.4" height="18.48"/><text y="13.16" xml:space="preserve"><tspan x="0" fill="var(--fg)">bash-5.3$ export PATH=/c/projects/tt</tspan></text></g><g transform="translate(0,9313.92)"><rect class="cur" x="310.8" y="0" width="8.4" height="18.48"/><text y="13.16" xml:space="preserve"><tspan x="0" fill="var(--fg)">bash-5.3$ export PATH=/c/projects/tty</tspan></text></g><g transform="translate(0,9646.56)"><rect class="cur" x="319.2" y="0" width="8.4" height="18.48"/><text y="13.16" xml:space="preserve"><tspan x="0" fill="var(--fg)">bash-5.3$ export PATH=/c/projects/ttys</tspan></text></g><g transform="translate(0,9979.2)"><rect class="cur" x="327.6" y="0" width="8.4" height="18.48"/><text y="13.16" xml:space="preserve"><tspan x="0" fill="var(--fg)">bash-5.3$ export PATH=/c/projects/ttysv</tspan></text></g><g transform="translate(0,10311.84)"><rect class="cur" x="336" y="0" width="8.4" height="18.48"/><text y="13.16" xml:space="preserve"><tspan x="0" fill="var(--fg)">bash-5.3$ export PATH=/c/projects/ttysvg</tspan></text></g><g transform="translate(0,10644.48)"><rect class="cur" x="344.4" y="0" width="8.4" height="18.48"/><text y="13.16" xml:space="preserve"><tspan x="0" fill="var(--fg)">bash-5.3$ export PATH=/c/projects/ttysvg/</tspan></text></g><g transform="translate(0,10977.12)"><rect class="cur" x="352.8" y="0" width="8.4" height="18.48"/><text y="13.16" xml:space="preserve"><tspan x="0" fill="var(--fg)">bash-5.3$ export PATH=/c/projects/ttysvg/t</tspan></text></g><g transform="translate(0,11309.76)"><rect class="cur" x="361.2" y="0" width="8.4" height="18.48"/><text y="13.16" xml:space="preserve"><tspan x="0" fill="var(--fg)">bash-5.3$ export PATH=/c/projects/ttysvg/ta</tspan></text></g><g transform="translate(0,11642.4)"><rect class="cur" x="369.6" y="0" width="8.4" height="18.48"/><text y="13.16" xml:space="preserve"><tspan x="0" fill="var(--fg)">bash-5.3$ export PATH=/c/projects/ttysvg/tar</tspan></text></g><g transform="translate(0,11975.04)"><rect class="cur" x="378" y="0" width="8.4" height="18.48"/><text y="13.16" xml:space="preserve"><tspan x="0" fill="var(--fg)">bash-5.3$ export PATH=/c/projects/ttysvg/targ</tspan></text></g><g transform="translate(0,12307.68)"><rect class="cur" x="386.4" y="0" width="8.4" height="18.48"/><text y="13.16" xml:space="preserve"><tspan x="0" fill="var(--fg)">bash-5.3$ export PATH=/c/projects/ttysvg/targe</tspan></text></g><g transform="translate(0,12640.32)"><rect class="cur" x="394.8" y="0" width="8.4" height="18.48"/><text y="13.16" xml:space="preserve"><tspan x="0" fill="var(--fg)">bash-5.3$ export PATH=/c/projects/ttysvg/target</tspan></text></g><g transform="translate(0,12972.96)"><rect class="cur" x="403.2" y="0" width="8.4" height="18.48"/><text y="13.16" xml:space="preserve"><tspan x="0" fill="var(--fg)">bash-5.3$ export PATH=/c/projects/ttysvg/target/</tspan></text></g><g transform="translate(0,13305.6)"><rect class="cur" x="411.6" y="0" width="8.4" height="18.48"/><text y="13.16" xml:space="preserve"><tspan x="0" fill="var(--fg)">bash-5.3$ export PATH=/c/projects/ttysvg/target/r</tspan></text></g><g transform="translate(0,13638.24)"><rect class="cur" x="420" y="0" width="8.4" height="18.48"/><text y="13.16" xml:space="preserve"><tspan x="0" fill="var(--fg)">bash-5.3$ export PATH=/c/projects/ttysvg/target/re</tspan></text></g><g transform="translate(0,13970.88)"><rect class="cur" x="428.4" y="0" width="8.4" height="18.48"/><text y="13.16" xml:space="preserve"><tspan x="0" fill="var(--fg)">bash-5.3$ export PATH=/c/projects/ttysvg/target/rel</tspan></text></g><g transform="translate(0,14303.52)"><rect class="cur" x="436.8" y="0" width="8.4" height="18.48"/><text y="13.16" xml:space="preserve"><tspan x="0" fill="var(--fg)">bash-5.3$ export PATH=/c/projects/ttysvg/target/rele</tspan></text></g><g transform="translate(0,14636.16)"><rect class="cur" x="445.2" y="0" width="8.4" height="18.48"/><text y="13.16" xml:space="preserve"><tspan x="0" fill="var(--fg)">bash-5.3$ export PATH=/c/projects/ttysvg/target/relea</tspan></text></g><g transform="translate(0,14968.8)"><rect class="cur" x="453.6" y="0" width="8.4" height="18.48"/><text y="13.16" xml:space="preserve"><tspan x="0" fill="var(--fg)">bash-5.3$ export PATH=/c/projects/ttysvg/target/releas</tspan></text></g><g transform="translate(0,15301.44)"><rect class="cur" x="462" y="0" width="8.4" height="18.48"/><text y="13.16" xml:space="preserve"><tspan x="0" fill="var(--fg)">bash-5.3$ export PATH=/c/projects/ttysvg/target/release</tspan></text></g><g transform="translate(0,15634.08)"><rect class="cur" x="470.4" y="0" width="8.4" height="18.48"/><text y="13.16" xml:space="preserve"><tspan x="0" fill="var(--fg)">bash-5.3$ export PATH=/c/projects/ttysvg/target/release:</tspan></text></g><g transform="translate(0,15966.72)"><rect class="cur" x="478.8" y="0" width="8.4" height="18.48"/><text y="13.16" xml:space="preserve"><tspan x="0" fill="var(--fg)">bash-5.3$ export PATH=/c/projects/ttysvg/target/release:$</tspan></text></g><g transform="translate(0,16299.36)"><rect class="cur" x="487.2" y="0" width="8.4" height="18.48"/><text y="13.16" xml:space="preserve"><tspan x="0" fill="var(--fg)">bash-5.3$ export PATH=/c/projects/ttysvg/target/release:$P</tspan></text></g><g transform="translate(0,16632)"><rect class="cur" x="495.6" y="0" width="8.4" height="18.48"/><text y="13.16" xml:space="preserve"><tspan x="0" fill="var(--fg)">bash-5.3$ export PATH=/c/projects/ttysvg/target/release:$PA</tspan></text></g><g transform="translate(0,16964.64)"><rect class="cur" x="504" y="0" width="8.4" height="18.48"/><text y="13.16" xml:space="preserve"><tspan x="0" fill="var(--fg)">bash-5.3$ export PATH=/c/projects/ttysvg/target/release:$PAT</tspan></text></g><g transform="translate(0,17297.28)"><rect class="cur" x="512.4" y="0" width="8.4" height="18.48"/><text y="13.16" xml:space="preserve"><tspan x="0" fill="var(--fg)">bash-5.3$ export PATH=/c/projects/ttysvg/target/release:$PATH</tspan></text></g><g transform="translate(0,17629.92)"><rect class="cur" x="520.8" y="0" width="8.4" height="18.48"/><text y="13.16" xml:space="preserve"><tspan x="0" fill="var(--fg)">bash-5.3$ export PATH=/c/projects/ttysvg/target/release:$PATH</tspan></text></g><g transform="translate(0,17962.56)"><rect class="cur" x="529.2" y="0" width="8.4" height="18.48"/><text y="13.16" xml:space="preserve"><tspan x="0" fill="var(--fg)">bash-5.3$ export PATH=/c/projects/ttysvg/target/release:$PATH &amp;</tspan></text></g><g transform="translate(0,18295.2)"><rect class="cur" x="537.6" y="0" width="8.4" height="18.48"/><text y="13.16" xml:space="preserve"><tspan x="0" fill="var(--fg)">bash-5.3$ export PATH=/c/projects/ttysvg/target/release:$PATH &amp;&amp;</tspan></text></g><g transform="translate(0,18627.84)"><rect class="cur" x="546" y="0" width="8.4" height="18.48"/><text y="13.16" xml:space="preserve"><tspan x="0" fill="var(--fg)">bash-5.3$ export PATH=/c/projects/ttysvg/target/release:$PATH &amp;&amp;</tspan></text></g><g transform="translate(0,18960.48)"><rect class="cur" x="554.4" y="0" width="8.4" height="18.48"/><text y="13.16" xml:space="preserve"><tspan x="0" fill="var(--fg)">bash-5.3$ export PATH=/c/projects/ttysvg/target/release:$PATH &amp;&amp; e</tspan></text></g><g transform="translate(0,19293.12)"><rect class="cur" x="562.8" y="0" width="8.4" height="18.48"/><text y="13.16" xml:space="preserve"><tspan x="0" fill="var(--fg)">bash-5.3$ export PATH=/c/projects/ttysvg/target/release:$PATH &amp;&amp; ex</tspan></text></g><g transform="translate(0,19625.76)"><rect class="cur" x="571.2" y="0" width="8.4" height="18.48"/><text y="13.16" xml:space="preserve"><tspan x="0" fill="var(--fg)">bash-5.3$ export PATH=/c/projects/ttysvg/target/release:$PATH &amp;&amp; exp</tspan></text></g><g transform="translate(0,19958.4)"><rect class="cur" x="579.6" y="0" width="8.4" height="18.48"/><text y="13.16" xml:space="preserve"><tspan x="0" fill="var(--fg)">bash-5.3$ export PATH=/c/projects/ttysvg/target/release:$PATH &amp;&amp; expo</tspan></text></g><g transform="translate(0,20291.04)"><rect class="cur" x="588" y="0" width="8.4" height="18.48"/><text y="13.16" xml:space="preserve"><tspan x="0" fill="var(--fg)">bash-5.3$ export PATH=/c/projects/ttysvg/target/release:$PATH &amp;&amp; expor</tspan></text></g><g transform="translate(0,20623.68)"><rect class="cur" x="596.4" y="0" width="8.4" height="18.48"/><text y="13.16" xml:space="preserve"><tspan x="0" fill="var(--fg)">bash-5.3$ export PATH=/c/projects/ttysvg/target/release:$PATH &amp;&amp; export</tspan></text></g><g transform="translate(0,20956.32)"><rect class="cur" x="604.8" y="0" width="8.4" height="18.48"/><text y="13.16" xml:space="preserve"><tspan x="0" fill="var(--fg)">bash-5.3$ export PATH=/c/projects/ttysvg/target/release:$PATH &amp;&amp; export</tspan></text></g><g transform="translate(0,21288.96)"><rect class="cur" x="613.2" y="0" width="8.4" height="18.48"/><text y="13.16" xml:space="preserve"><tspan x="0" fill="var(--fg)">bash-5.3$ export PATH=/c/projects/ttysvg/target/release:$PATH &amp;&amp; export P</tspan></text></g><g transform="translate(0,21621.6)"><rect class="cur" x="621.6" y="0" width="8.4" height="18.48"/><text y="13.16" xml:space="preserve"><tspan x="0" fill="var(--fg)">bash-5.3$ export PATH=/c/projects/ttysvg/target/release:$PATH &amp;&amp; export PS</tspan></text></g><g transform="translate(0,21954.24)"><rect class="cur" x="630" y="0" width="8.4" height="18.48"/><text y="13.16" xml:space="preserve"><tspan x="0" fill="var(--fg)">bash-5.3$ export PATH=/c/projects/ttysvg/target/release:$PATH &amp;&amp; export PS1</tspan></text></g><g transform="translate(0,22286.88)"><rect class="cur" x="638.4" y="0" width="8.4" height="18.48"/><text y="13.16" xml:space="preserve"><tspan x="0" fill="var(--fg)">bash-5.3$ export PATH=/c/projects/ttysvg/target/release:$PATH &amp;&amp; export PS1=</tspan></text></g><g transform="translate(0,22619.52)"><rect class="cur" x="646.8" y="0" width="8.4" height="18.48"/><text y="13.16" xml:space="preserve"><tspan x="0" fill="var(--fg)">bash-5.3$ export PATH=/c/projects/ttysvg/target/release:$PATH &amp;&amp; export PS1='</tspan></text></g><g transform="translate(0,22952.16)"><rect class="cur" x="655.2" y="0" width="8.4" height="18.48"/><text y="13.16" xml:space="preserve"><tspan x="0" fill="var(--fg)">bash-5.3$ export PATH=/c/projects/ttysvg/target/release:$PATH &amp;&amp; export PS1='d</tspan></text></g><g transform="translate(0,23284.8)"><rect class="cur" x="663.6" y="0" width="8.4" height="18.48"/><text y="13.16" xml:space="preserve"><tspan x="0" fill="var(--fg)">bash-5.3$ export PATH=/c/projects/ttysvg/target/release:$PATH &amp;&amp; export PS1='de</tspan></text></g><g transform="translate(0,23617.44)"><rect class="cur" x="672" y="0" width="8.4" height="18.48"/><text y="13.16" xml:space="preserve"><tspan x="0" fill="var(--fg)">bash-5.3$ export PATH=/c/projects/ttysvg/target/release:$PATH &amp;&amp; export PS1='dem</tspan></text></g><g transform="translate(0,23950.08)"><rect class="cur" x="680.4" y="0" width="8.4" height="18.48"/><text y="13.16" xml:space="preserve"><tspan x="0" fill="var(--fg)">bash-5.3$ export PATH=/c/projects/ttysvg/target/release:$PATH &amp;&amp; export PS1='demo</tspan></text></g><g transform="translate(0,24282.72)"><rect class="cur" x="688.8" y="0" width="8.4" height="18.48"/><text y="13.16" xml:space="preserve"><tspan x="0" fill="var(--fg)">bash-5.3$ export PATH=/c/projects/ttysvg/target/release:$PATH &amp;&amp; export PS1='demo</tspan></text></g><g transform="translate(0,24615.36)"><rect class="cur" x="697.2" y="0" width="8.4" height="18.48"/><text y="13.16" xml:space="preserve"><tspan x="0" fill="var(--fg)">bash-5.3$ export PATH=/c/projects/ttysvg/target/release:$PATH &amp;&amp; export PS1='demo $</tspan></text></g><g transform="translate(0,24948)"><rect class="cur" x="0" y="18.48" width="8.4" height="18.48"/><text y="13.16" xml:space="preserve"><tspan x="0" fill="var(--fg)">bash-5.3$ export PATH=/c/projects/ttysvg/target/release:$PATH &amp;&amp; export PS1='demo $</tspan></text></g><g transform="translate(0,25280.64)"><rect class="cur" x="8.4" y="18.48" width="8.4" height="18.48"/><text y="13.16" xml:space="preserve"><tspan x="0" fill="var(--fg)">bash-5.3$ export PATH=/c/projects/ttysvg/target/release:$PATH &amp;&amp; export PS1='demo $</tspan></text><text y="31.64" xml:space="preserve"><tspan x="0" fill="var(--fg)">'</tspan></text></g><g transform="translate(0,25613.28)"><rect class="cur" x="16.8" y="18.48" width="8.4" height="18.48"/><text y="13.16" xml:space="preserve"><tspan x="0" fill="var(--fg)">bash-5.3$ export PATH=/c/projects/ttysvg/target/release:$PATH &amp;&amp; export PS1='demo $</tspan></text><text y="31.64" xml:space="preserve"><tspan x="0" fill="var(--fg)">'</tspan></text></g><g transform="translate(0,25945.92)"><rect class="cur" x="25.2" y="18.48" width="8.4" height="18.48"/><text y="13.16" xml:space="preserve"><tspan x="0" fill="var(--fg)">bash-5.3$ export PATH=/c/projects/ttysvg/target/release:$PATH &amp;&amp; export PS1='demo $</tspan></text><text y="31.64" xml:space="preserve"><tspan x="0" fill="var(--fg)">' &amp;</tspan></text></g><g transform="translate(0,26278.56)"><rect class="cur" x="33.6" y="18.48" width="8.4" height="18.48"/><text y="13.16" xml:space="preserve"><tspan x="0" fill="var(--fg)">bash-5.3$ export PATH=/c/projects/ttysvg/target/release:$PATH &amp;&amp; export PS1='demo $</tspan></text><text y="31.64" xml:space="preserve"><tspan x="0" fill="var(--fg)">' &amp;&amp;</tspan></text></g><g transform="translate(0,26611.2)"><rect class="cur" x="42" y="18.48" width="8.4" height="18.48"/><text y="13.16" xml:space="preserve"><tspan x="0" fill="var(--fg)">bash-5.3$ export PATH=/c/projects/ttysvg/target/release:$PATH &amp;&amp; export PS1='demo $</tspan></text><text y="31.64" xml:space="preserve"><tspan x="0" fill="var(--fg)">' &amp;&amp;</tspan></text></g><g transform="translate(0,26943.84)"><rect class="cur" x="50.4" y="18.48" width="8.4" height="18.48"/><text y="13.16" xml:space="preserve"><tspan x="0" fill="var(--fg)">bash-5.3$ export PATH=/c/projects/ttysvg/target/release:$PATH &amp;&amp; export PS1='demo $</tspan></text><text y="31.64" xml:space="preserve"><tspan x="0" fill="var(--fg)">' &amp;&amp; c</tspan></text></g><g transform="translate(0,27276.48)"><rect class="cur" x="58.8" y="18.48" width="8.4" height="18.48"/><text y="13.16" xml:space="preserve"><tspan x="0" fill="var(--fg)">bash-5.3$ export PATH=/c/projects/ttysvg/target/release:$PATH &amp;&amp; export PS1='demo $</tspan></text><text y="31.64" xml:space="preserve"><tspan x="0" fill="var(--fg)">' &amp;&amp; cl</tspan></text></g><g transform="translate(0,27609.12)"><rect class="cur" x="67.2" y="18.48" width="8.4" height="18.48"/><text y="13.16" xml:space="preserve"><tspan x="0" fill="var(--fg)">bash-5.3$ export PATH=/c/projects/ttysvg/target/release:$PATH &amp;&amp; export PS1='demo $</tspan></text><text y="31.64" xml:space="preserve"><tspan x="0" fill="var(--fg)">' &amp;&amp; cle</tspan></text></g><g transform="translate(0,27941.76)"><rect class="cur" x="75.6" y="18.48" width="8.4" height="18.48"/><text y="13.16" xml:space="preserve"><tspan x="0" fill="var(--fg)">bash-5.3$ export PATH=/c/projects/ttysvg/target/release:$PATH &amp;&amp; export PS1='demo $</tspan></text><text y="31.64" xml:space="preserve"><tspan x="0" fill="var(--fg)">' &amp;&amp; clea</tspan></text></g><g transform="translate(0,28274.4)"><rect class="cur" x="84" y="18.48" width="8.4" height="18.48"/><text y="13.16" xml:space="preserve"><tspan x="0" fill="var(--fg)">bash-5.3$ export PATH=/c/projects/ttysvg/target/release:$PATH &amp;&amp; export PS1='demo $</tspan></text><text y="31.64" xml:space="preserve"><tspan x="0" fill="var(--fg)">' &amp;&amp; clear</tspan></text></g><g transform="translate(0,28607.04)"><rect class="cur" x="0" y="36.96" width="8.4" height="18.48"/><text y="13.16" xml:space="preserve"><tspan x="0" fill="var(--fg)">bash-5.3$ export PATH=/c/projects/ttysvg/target/release:$PATH &amp;&amp; export PS1='demo $</tspan></text><text y="31.64" xml:space="preserve"><tspan x="0" fill="var(--fg)">' &amp;&amp; clear</tspan></text></g><g transform="translate(0,28939.68)"><rect class="cur" x="0" y="0" width="8.4" height="18.48"/><text y="13.16" xml:space="preserve"><tspan x="0" fill="var(--fg)">bash-5.3$ export PATH=/c/projects/ttysvg/target/release:$PATH &amp;&amp; export PS1='demo $</tspan></text><text y="31.64" xml:space="preserve"><tspan x="0" fill="var(--fg)">' &amp;&amp; clear</tspan></text></g><g transform="translate(0,29272.32)"><rect class="cur" x="58.8" y="0" width="8.4" height="18.48"/><text y="13.16" xml:space="preserve"><tspan x="0" fill="var(--fg)">demo $</tspan></text></g><g transform="translate(0,29604.96)"><rect class="cur" x="67.2" y="0" width="8.4" height="18.48"/><text y="13.16" xml:space="preserve"><tspan x="0" fill="var(--fg)">demo $ t</tspan></text></g><g transform="translate(0,29937.6)"><rect class="cur" x="75.6" y="0" width="8.4" height="18.48"/><text y="13.16" xml:space="preserve"><tspan x="0" fill="var(--fg)">demo $ tt</tspan></text></g><g transform="translate(0,30270.24)"><rect class="cur" x="84" y="0" width="8.4" height="18.48"/><text y="13.16" xml:space="preserve"><tspan x="0" fill="var(--fg)">demo $ tty</tspan></text></g><g transform="translate(0,30602.88)"><rect class="cur" x="92.4" y="0" width="8.4" height="18.48"/><text y="13.16" xml:space="preserve"><tspan x="0" fill="var(--fg)">demo $ ttys</tspan></text></g><g transform="translate(0,30935.52)"><rect class="cur" x="100.8" y="0" width="8.4" height="18.48"/><text y="13.16" xml:space="preserve"><tspan x="0" fill="var(--fg)">demo $ ttysv</tspan></text></g><g transform="translate(0,31268.16)"><rect class="cur" x="109.2" y="0" width="8.4" height="18.48"/><text y="13.16" xml:space="preserve"><tspan x="0" fill="var(--fg)">demo $ ttysvg</tspan></text></g><g transform="translate(0,31600.8)"><rect class="cur" x="117.6" y="0" width="8.4" height="18.48"/><text y="13.16" xml:space="preserve"><tspan x="0" fill="var(--fg)">demo $ ttysvg</tspan></text></g><g transform="translate(0,31933.44)"><rect class="cur" x="126" y="0" width="8.4" height="18.48"/><text y="13.16" xml:space="preserve"><tspan x="0" fill="var(--fg)">demo $ ttysvg t</tspan></text></g><g transform="translate(0,32266.08)"><rect class="cur" x="134.4" y="0" width="8.4" height="18.48"/><text y="13.16" xml:space="preserve"><tspan x="0" fill="var(--fg)">demo $ ttysvg th</tspan></text></g><g transform="translate(0,32598.72)"><rect class="cur" x="142.8" y="0" width="8.4" height="18.48"/><text y="13.16" xml:space="preserve"><tspan x="0" fill="var(--fg)">demo $ ttysvg the</tspan></text></g><g transform="translate(0,32931.36)"><rect class="cur" x="151.2" y="0" width="8.4" height="18.48"/><text y="13.16" xml:space="preserve"><tspan x="0" fill="var(--fg)">demo $ ttysvg them</tspan></text></g><g transform="translate(0,33264)"><rect class="cur" x="159.6" y="0" width="8.4" height="18.48"/><text y="13.16" xml:space="preserve"><tspan x="0" fill="var(--fg)">demo $ ttysvg theme</tspan></text></g><g transform="translate(0,33596.64)"><rect class="cur" x="168" y="0" width="8.4" height="18.48"/><text y="13.16" xml:space="preserve"><tspan x="0" fill="var(--fg)">demo $ ttysvg themes</tspan></text></g><g transform="translate(0,33929.28)"><rect class="cur" x="176.4" y="0" width="8.4" height="18.48"/><text y="13.16" xml:space="preserve"><tspan x="0" fill="var(--fg)">demo $ ttysvg themes</tspan></text></g><g transform="translate(0,34261.92)"><rect class="cur" x="184.8" y="0" width="8.4" height="18.48"/><text y="13.16" xml:space="preserve"><tspan x="0" fill="var(--fg)">demo $ ttysvg themes |</tspan></text></g><g transform="translate(0,34594.56)"><rect class="cur" x="193.2" y="0" width="8.4" height="18.48"/><text y="13.16" xml:space="preserve"><tspan x="0" fill="var(--fg)">demo $ ttysvg themes |</tspan></text></g><g transform="translate(0,34927.2)"><rect class="cur" x="201.6" y="0" width="8.4" height="18.48"/><text y="13.16" xml:space="preserve"><tspan x="0" fill="var(--fg)">demo $ ttysvg themes | t</tspan></text></g><g transform="translate(0,35259.84)"><rect class="cur" x="210" y="0" width="8.4" height="18.48"/><text y="13.16" xml:space="preserve"><tspan x="0" fill="var(--fg)">demo $ ttysvg themes | tr</tspan></text></g><g transform="translate(0,35592.48)"><rect class="cur" x="218.4" y="0" width="8.4" height="18.48"/><text y="13.16" xml:space="preserve"><tspan x="0" fill="var(--fg)">demo $ ttysvg themes | tr</tspan></text></g><g transform="translate(0,35925.12)"><rect class="cur" x="226.8" y="0" width="8.4" height="18.48"/><text y="13.16" xml:space="preserve"><tspan x="0" fill="var(--fg)">demo $ ttysvg themes | tr '</tspan></text></g><g transform="translate(0,36257.76)"><rect class="cur" x="235.2" y="0" width="8.4" height="18.48"/><text y="13.16" xml:space="preserve"><tspan x="0" fill="var(--fg)">demo $ ttysvg themes | tr '\</tspan></text></g><g transform="translate(0,36590.4)"><rect class="cur" x="243.6" y="0" width="8.4" height="18.48"/><text y="13.16" xml:space="preserve"><tspan x="0" fill="var(--fg)">demo $ ttysvg themes | tr '\n</tspan></text></g><g transform="translate(0,36923.04)"><rect class="cur" x="252" y="0" width="8.4" height="18.48"/><text y="13.16" xml:space="preserve"><tspan x="0" fill="var(--fg)">demo $ ttysvg themes | tr '\n'</tspan></text></g><g transform="translate(0,37255.68)"><rect class="cur" x="260.4" y="0" width="8.4" height="18.48"/><text y="13.16" xml:space="preserve"><tspan x="0" fill="var(--fg)">demo $ ttysvg themes | tr '\n'</tspan></text></g><g transform="translate(0,37588.32)"><rect class="cur" x="268.8" y="0" width="8.4" height="18.48"/><text y="13.16" xml:space="preserve"><tspan x="0" fill="var(--fg)">demo $ ttysvg themes | tr '\n' '</tspan></text></g><g transform="translate(0,37920.96)"><rect class="cur" x="277.2" y="0" width="8.4" height="18.48"/><text y="13.16" xml:space="preserve"><tspan x="0" fill="var(--fg)">demo $ ttysvg themes | tr '\n' '</tspan></text></g><g transform="translate(0,38253.6)"><rect class="cur" x="285.6" y="0" width="8.4" height="18.48"/><text y="13.16" xml:space="preserve"><tspan x="0" fill="var(--fg)">demo $ ttysvg themes | tr '\n' ' '</tspan></text></g><g transform="translate(0,38586.24)"><rect class="cur" x="0" y="18.48" width="8.4" height="18.48"/><text y="13.16" xml:space="preserve"><tspan x="0" fill="var(--fg)">demo $ ttysvg themes | tr '\n' ' '</tspan></text></g><g transform="translate(0,38918.88)"><rect class="cur" x="294" y="18.48" width="8.4" height="18.48"/><text y="13.16" xml:space="preserve"><tspan x="0" fill="var(--fg)">demo $ ttysvg themes | tr '\n' ' '</tspan></text><text y="31.64" xml:space="preserve"><tspan x="0" fill="var(--fg)">tokyonight catppuccin gruvbox nord</tspan></text></g><g transform="translate(0,39251.52)"><rect class="cur" x="352.8" y="18.48" width="8.4" height="18.48"/><text y="13.16" xml:space="preserve"><tspan x="0" fill="var(--fg)">demo $ ttysvg themes | tr '\n' ' '</tspan></text><text y="31.64" xml:space="preserve"><tspan x="0" fill="var(--fg)">tokyonight catppuccin gruvbox nord demo $</tspan></text></g></g></g></g></svg>